<svg xmlns="http://www.w3.org/2000/svg"  viewBox="0 0 48 48" width="48px" height="48px" baseProfile="basic"><path fill="#26c6da" d="M20.858,28.467c7.006,0,12.686-5.671,12.686-12.667S27.863,3.133,20.858,3.133	S8.172,8.805,8.172,15.8S13.851,28.467,20.858,28.467z"/><path fill="#00acc1" d="M32.328,36.911c5.783,0,10.471-4.681,10.471-10.456S38.111,16,32.328,16s-10.471,4.681-10.471,10.456	S26.545,36.911,32.328,36.911z"/><path fill="#0097a7" d="M22.443,44.972c4.963,0,8.986-4.017,8.986-8.972s-4.023-8.972-8.986-8.972S13.457,31.045,13.457,36	S17.48,44.972,22.443,44.972z"/><path fill="#00838f" d="M8.5,23h10c1.933,0,3.5,1.567,3.5,3.5v10c0,1.933-1.567,3.5-3.5,3.5h-10C6.567,40,5,38.433,5,36.5	v-10C5,24.567,6.567,23,8.5,23z"/><path fill="#fff" d="M9.832,34.445l1.846-0.962c0.208,0.42,0.479,0.729,0.814,0.928c0.339,0.199,0.711,0.298,1.113,0.298	c0.448,0,0.79-0.09,1.024-0.271c0.235-0.185,0.353-0.463,0.353-0.833c0-0.289-0.113-0.533-0.339-0.732	c-0.226-0.203-0.626-0.357-1.201-0.461c-1.095-0.199-1.891-0.547-2.389-1.044c-0.493-0.497-0.74-1.116-0.74-1.856	c0-0.921,0.326-1.658,0.978-2.209c0.651-0.551,1.511-0.826,2.579-0.826c0.719,0,1.352,0.147,1.9,0.44	c0.547,0.293,0.982,0.714,1.303,1.261l-1.805,0.928c-0.199-0.307-0.414-0.529-0.644-0.664c-0.231-0.14-0.52-0.21-0.869-0.21	c-0.417,0-0.733,0.09-0.95,0.271c-0.213,0.181-0.319,0.416-0.319,0.705c0,0.248,0.102,0.468,0.305,0.657	c0.208,0.185,0.624,0.337,1.249,0.454c1.05,0.199,1.833,0.56,2.348,1.085c0.52,0.519,0.78,1.176,0.78,1.972	c0,0.966-0.31,1.732-0.93,2.297c-0.62,0.564-1.504,0.847-2.653,0.847c-0.832,0-1.584-0.181-2.253-0.542	c-0.665-0.366-1.165-0.876-1.499-1.532L9.832,34.445z"/></svg>