<?xml version="1.0" encoding="UTF-8"?>
<svg version="1.1" xmlns="http://www.w3.org/2000/svg" width="1280" height="1280">
    <path
        d="M0 0 C1.02552979 0.31348389 1.02552979 0.31348389 2.07177734 0.63330078 C31.22898344 9.83757369 57.15180487 30.93861458 71.35839844 58.09521484 C81.29824314 77.94148498 81.29824314 77.94148498 82 88 C83.0621875 88.10441406 84.124375 88.20882812 85.21875 88.31640625 C153.92870142 96.99539968 226.02520202 134.21806143 282 173 C282.60811523 173.42055664 283.21623047 173.84111328 283.84277344 174.27441406 C297.67581077 183.88978343 311.10913044 194.1561784 324 205 C324.53157715 205.44666016 325.0631543 205.89332031 325.61083984 206.35351562 C327.36961868 207.83512014 329.12318476 209.32267012 330.875 210.8125 C331.64976685 211.46810913 331.64976685 211.46810913 332.44018555 212.13696289 C343.42617414 221.54474353 353.78124857 231.61636498 363.98632812 241.85595703 C365.89078505 243.76582994 367.80060819 245.67022149 369.7109375 247.57421875 C375.6866485 253.54638924 381.56019788 259.52834895 387 266 C387.94851645 267.08378874 388.89899732 268.1658618 389.8515625 269.24609375 C397.06935627 277.52184517 403.80959983 286.09865099 410.40185547 294.87841797 C411.94616689 296.92853503 413.50407504 298.96750218 415.06640625 301.00390625 C431.63150695 322.68458115 446.10665778 345.96977235 459 370 C459.48404297 370.89041992 459.96808594 371.78083984 460.46679688 372.69824219 C483.45250354 415.08991431 500.03166706 460.41458452 511.27734375 507.26953125 C511.45109024 507.9838884 511.62483673 508.69824554 511.80384827 509.43424988 C512.58421282 512.75397473 513 515.56420416 513 519 C514.299375 519.185625 515.59875 519.37125 516.9375 519.5625 C536.45642163 523.53245016 553.53017802 534.76823766 568 548 C568.79921875 548.71671875 569.5984375 549.4334375 570.421875 550.171875 C581.74898409 560.85631124 589.72026642 573.87245298 596 588 C596.48210937 589.06605469 596.96421875 590.13210938 597.4609375 591.23046875 C609.27660956 619.48066649 608.25345354 652.97721209 597.3125 681.25 C591.3977296 695.63499834 583.4666497 707.55401466 573 719 C572.28328125 719.79921875 571.5665625 720.5984375 570.828125 721.421875 C556.91229302 736.1747495 533.68932513 751.55655871 513 753 C512.89558594 754.0621875 512.79117187 755.124375 512.68359375 756.21875 C507.84600167 794.51705267 491.56588004 834.78851006 475.20117188 869.45361328 C474.34713821 871.26409522 473.50022193 873.07794201 472.65820312 874.89404297 C460.53344954 901.04376016 446.38275545 926.26294193 430 950 C429.57138672 950.62165039 429.14277344 951.24330078 428.70117188 951.88378906 C418.43140252 966.73139024 407.62048551 981.1783645 396 995 C395.56397461 995.52094238 395.12794922 996.04188477 394.67871094 996.57861328 C382.67333669 1010.89078807 369.81030086 1024.27926097 356.625 1037.5 C356.06101501 1038.06666382 355.49703003 1038.63332764 354.91595459 1039.21716309 C348.79083498 1045.36433714 342.62081687 1051.38200448 336 1057 C334.84288356 1058.02098509 333.6879116 1059.04440601 332.53515625 1060.0703125 C324.01770665 1067.58628254 315.21042487 1074.60226136 306.11865234 1081.40917969 C304.03570709 1082.97318882 301.96390459 1084.55090477 299.89453125 1086.1328125 C291.15620995 1092.7907322 282.23201787 1099.04745527 273 1105 C272.28505371 1105.46374023 271.57010742 1105.92748047 270.83349609 1106.40527344 C216.25684649 1141.72026996 156.91498499 1167.11239979 93.73046875 1182.27734375 C93.0161116 1182.45109024 92.30175446 1182.62483673 91.56575012 1182.80384827 C88.24602527 1183.58421282 85.43579584 1184 82 1184 C81.814375 1185.299375 81.62875 1186.59875 81.4375 1187.9375 C77.46754984 1207.45642163 66.23176234 1224.53017802 53 1239 C52.28328125 1239.79921875 51.5665625 1240.5984375 50.828125 1241.421875 C40.14368876 1252.74898409 27.12754702 1260.72026642 13 1267 C11.93394531 1267.48210937 10.86789062 1267.96421875 9.76953125 1268.4609375 C-18.48066649 1280.27660956 -51.97721209 1279.25345354 -80.25 1268.3125 C-94.63499834 1262.3977296 -106.55401466 1254.4666497 -118 1244 C-118.79921875 1243.28328125 -119.5984375 1242.5665625 -120.421875 1241.828125 C-135.1747495 1227.91229302 -150.55655871 1204.68932513 -152 1184 C-153.05832031 1183.896875 -154.11664062 1183.79375 -155.20703125 1183.6875 C-194.90356748 1178.6786928 -234.99219113 1161.58329727 -271 1145 C-272.55412598 1144.28674561 -272.55412598 1144.28674561 -274.13964844 1143.55908203 C-300.21391033 1131.51954703 -325.35189906 1117.32135934 -349 1101 C-349.62165039 1100.57138672 -350.24330078 1100.14277344 -350.88378906 1099.70117188 C-365.73139024 1089.43140252 -380.1783645 1078.62048551 -394 1067 C-394.52094238 1066.56397461 -395.04188477 1066.12794922 -395.57861328 1065.67871094 C-410.07278417 1053.52067427 -423.6119236 1040.47860047 -437 1027.125 C-437.59058197 1026.53709686 -438.18116394 1025.94919373 -438.78964233 1025.34347534 C-445.08170213 1019.07306668 -451.2657492 1012.79228765 -457 1006 C-457.94872072 1004.91639007 -458.8991948 1003.8343123 -459.8515625 1002.75390625 C-467.06579554 994.48223749 -473.80373268 985.90997457 -480.39306641 977.13476562 C-481.96516569 975.04627639 -483.54924023 972.96743916 -485.13671875 970.890625 C-491.79238957 962.15294011 -498.04845419 953.23046862 -504 944 C-504.46374023 943.28505371 -504.92748047 942.57010742 -505.40527344 941.83349609 C-540.72026996 887.25684649 -566.11239979 827.91498499 -581.27734375 764.73046875 C-581.45109024 764.0161116 -581.62483673 763.30175446 -581.80384827 762.56575012 C-582.58421282 759.24602527 -583 756.43579584 -583 753 C-584.299375 752.814375 -585.59875 752.62875 -586.9375 752.4375 C-606.45642163 748.46754984 -623.53017802 737.23176234 -638 724 C-638.79921875 723.28328125 -639.5984375 722.5665625 -640.421875 721.828125 C-651.74898409 711.14368876 -659.72026642 698.12754702 -666 684 C-666.72316406 682.40091797 -666.72316406 682.40091797 -667.4609375 680.76953125 C-679.27660956 652.51933351 -678.25345354 619.02278791 -667.3125 590.75 C-661.3977296 576.36500166 -653.4666497 564.44598534 -643 553 C-642.28328125 552.20078125 -641.5665625 551.4015625 -640.828125 550.578125 C-626.91229302 535.8252505 -603.68932513 520.44344129 -583 519 C-582.89558594 517.9378125 -582.79117188 516.875625 -582.68359375 515.78125 C-577.84600167 477.48294733 -561.56588004 437.21148994 -545.20117188 402.54638672 C-544.34713821 400.73590478 -543.50022193 398.92205799 -542.65820312 397.10595703 C-522.6190119 353.88700174 -496.6698948 313.45961984 -466 277 C-465.55333984 276.46842285 -465.10667969 275.9368457 -464.64648438 275.38916016 C-463.16487986 273.63038132 -461.67732988 271.87681524 -460.1875 270.125 C-459.75042725 269.60848877 -459.31335449 269.09197754 -458.86303711 268.55981445 C-449.45525647 257.57382586 -439.38363502 247.21875143 -429.14404297 237.01367188 C-427.23417006 235.10921495 -425.32977851 233.19939181 -423.42578125 231.2890625 C-417.45361076 225.3133515 -411.47165105 219.43980212 -405 214 C-403.91621126 213.05148355 -402.8341382 212.10100268 -401.75390625 211.1484375 C-393.47815483 203.93064373 -384.90134901 197.19040017 -376.12158203 190.59814453 C-374.07146497 189.05383311 -372.03249782 187.49592496 -369.99609375 185.93359375 C-360.28140229 178.51109224 -350.27841339 171.61781117 -340 165 C-339.21592773 164.49388184 -338.43185547 163.98776367 -337.62402344 163.46630859 C-305.55222204 142.88765982 -271.57627013 125.65201544 -236 112 C-234.89640137 111.5762207 -233.79280273 111.15244141 -232.65576172 110.71582031 C-218.55512244 105.36354265 -204.30671847 100.76639988 -189.8125 96.625 C-189.09513672 96.41962616 -188.37777344 96.21425232 -187.63867188 96.00265503 C-179.69850986 93.74197786 -171.72774237 91.63548134 -163.69921875 89.7109375 C-162.98683548 89.53793121 -162.27445221 89.36492493 -161.54048157 89.18667603 C-158.22938435 88.41010162 -155.42671571 88 -152 88 C-151.814375 86.700625 -151.62875 85.40125 -151.4375 84.0625 C-147.46754984 64.54357837 -136.23176234 47.46982198 -123 33 C-122.28328125 32.20078125 -121.5665625 31.4015625 -120.828125 30.578125 C-110.14368876 19.25101591 -97.12754702 11.27973358 -83 5 C-81.40091797 4.27683594 -81.40091797 4.27683594 -79.76953125 3.5390625 C-55.54947712 -6.59099816 -25.06899036 -7.84345059 0 0 Z "
        fill="#20CFDB" transform="translate(675,4)"/>
    <path
        d="M0 0 C1.00604279 0.00131424 1.00604279 0.00131424 2.03240967 0.00265503 C48.63407255 0.20152512 87.98631784 19.20070189 120.65234375 51.703125 C133.0221104 64.85578827 152.3125 88.44396835 152.3125 107.375 C239.1025 107.375 325.8925 107.375 415.3125 107.375 C415.9725 105.395 416.6325 103.415 417.3125 101.375 C418.7336474 98.92206065 420.16767666 96.59220475 421.75 94.25 C422.19029541 93.59620361 422.63059082 92.94240723 423.08422852 92.26879883 C427.59772707 85.72577791 432.70429547 79.99112572 438.3125 74.375 C439.16328125 73.51261719 440.0140625 72.65023437 440.890625 71.76171875 C464.56361779 48.97469126 496.32682752 39.56680696 528.546875 40.0625 C560.92051378 41.1667742 589.31918026 55.22062071 611.65625 78.37890625 C620.89571383 88.58138542 627.73856762 99.83529733 633.3125 112.375 C633.79460938 113.44105469 634.27671875 114.50710938 634.7734375 115.60546875 C646.58910956 143.85566649 645.56595354 177.35221209 634.625 205.625 C628.7102296 220.00999834 620.7791497 231.92901466 610.3125 243.375 C609.59578125 244.17421875 608.8790625 244.9734375 608.140625 245.796875 C597.96978667 256.57949308 585.59187902 264.50434744 572.14257812 270.54785156 C570.52344221 271.27965953 568.92400297 272.05470928 567.328125 272.8359375 C550.92744511 280.14975421 531.04816666 281.26178333 513.3125 280.375 C512.36375 280.354375 511.415 280.33375 510.4375 280.3125 C483.86497168 279.01627911 458.5352277 264.91475291 439.3125 247.375 C438.58675781 246.73175781 437.86101563 246.08851563 437.11328125 245.42578125 C428.50957254 237.38052828 419.99922914 226.22438955 415.3125 215.375 C415.3125 214.715 415.3125 214.055 415.3125 213.375 C328.8525 213.705 242.3925 214.035 153.3125 214.375 C150.3425 221.305 147.3725 228.235 144.3125 235.375 C121.3188835 274.9589474 87.10489824 303.49504649 42.58227539 315.60571289 C0.61874793 326.33546281 -43.26648189 319.96446164 -80.5625 298 C-114.58899578 277.18040608 -137.99631339 245.83911933 -150.6875 208.375 C-150.95256348 207.61493652 -151.21762695 206.85487305 -151.49072266 206.07177734 C-153.09037489 201.42102808 -154.35810056 196.83492465 -155.3125 192 C-155.55226563 190.81664062 -155.79203125 189.63328125 -156.0390625 188.4140625 C-159.47335523 168.61667036 -159.41087871 146.91721923 -154.6875 127.375 C-154.39300271 126.0367938 -154.10005937 124.69824477 -153.80859375 123.359375 C-144.65466078 82.74919963 -118.72282637 47.3356164 -83.82421875 24.921875 C-66.12457971 13.86864841 -47.31374367 5.91157939 -26.6875 2.375 C-25.84340576 2.20871094 -24.99931152 2.04242188 -24.12963867 1.87109375 C-16.05936861 0.36501986 -8.20027003 -0.0118665 0 0 Z "
        fill="#9FEEF3" transform="translate(637.6875,479.625)"/>
    <path
        d="M0 0 C1.24132187 0.00222061 2.48264374 0.00444122 3.76158142 0.00672913 C4.44447739 0.0065831 5.12737335 0.00643707 5.83096313 0.00628662 C8.09815092 0.00698575 10.36525752 0.01477811 12.63243103 0.02259827 C14.20041865 0.02446245 15.76840685 0.02588635 17.33639526 0.02688599 C21.47103981 0.03071117 25.60564944 0.04054146 29.74028015 0.05158997 C33.95627876 0.06180407 38.172283 0.0663836 42.38829041 0.07142639 C50.66630125 0.08216373 58.94428368 0.09924015 67.22227478 0.12025452 C68.03856102 1.56461128 68.03856102 1.56461128 68.87133789 3.03814697 C69.59506342 4.3132161 70.31890048 5.58822192 71.04283142 6.86317444 C71.4003373 7.49644402 71.75784317 8.12971359 72.12618256 8.78217316 C74.67311211 13.26056455 77.38619977 17.44550026 80.65977478 21.43275452 C81.36215271 22.30154236 81.36215271 22.30154236 82.07872009 23.18788147 C101.09747838 46.39244737 129.5675475 62.59008431 159.59727478 65.87025452 C161.47056868 65.98575083 163.34624981 66.06457894 165.22227478 66.12025452 C165.87953552 66.14071838 166.53679626 66.16118225 167.213974 66.18226624 C176.42284973 66.43048944 185.20906256 66.12252759 194.30430603 64.55775452 C196.99930531 64.15368501 199.50328581 64.03984079 202.22227478 64.12025452 C198.36929808 103.31596807 181.10106033 145.24594177 164.42344666 180.5738678 C163.56941299 182.38434974 162.72249671 184.19819653 161.88047791 186.01429749 C149.75572432 212.16401467 135.60503023 237.38319644 119.22227478 261.12025452 C118.7936615 261.74190491 118.36504822 262.3635553 117.92344666 263.00404358 C107.6536773 277.85164475 96.84276029 292.29861902 85.22227478 306.12025452 C84.78624939 306.6411969 84.350224 307.16213928 83.90098572 307.6988678 C71.89561147 322.01104258 59.03257564 335.39951548 45.84727478 348.62025452 C45.28328979 349.18691833 44.71930481 349.75358215 44.13822937 350.3374176 C38.01310976 356.48459165 31.84309165 362.502259 25.22227478 368.12025452 C24.06515834 369.14123961 22.91018638 370.16466053 21.75743103 371.19056702 C13.23998143 378.70653706 4.43269965 385.72251588 -4.65907288 392.5294342 C-6.74201813 394.09344334 -8.81382063 395.67115929 -10.88319397 397.25306702 C-19.62151526 403.91098672 -28.54570735 410.16770979 -37.77772522 416.12025452 C-38.49267151 416.58399475 -39.2076178 417.04773499 -39.94422913 417.52552795 C-94.52087873 452.84052448 -153.86274023 478.23265431 -217.04725647 493.39759827 C-217.76161362 493.57134476 -218.47597076 493.74509125 -219.2119751 493.92410278 C-222.53169995 494.70446733 -225.34192938 495.12025452 -228.77772522 495.12025452 C-228.63335022 494.17150452 -228.48897522 493.22275452 -228.34022522 492.24525452 C-223.45712135 457.59040895 -228.49583593 423.94028389 -249.84266663 395.3719635 C-261.95894539 379.90872975 -275.56953197 369.50654174 -292.77772522 360.12025452 C-292.77772522 337.02025452 -292.77772522 313.92025452 -292.77772522 290.12025452 C-289.45014363 288.45646372 -287.46847621 287.73348069 -283.93788147 287.11244202 C-282.48780701 286.84548523 -282.48780701 286.84548523 -281.00843811 286.57313538 C-279.96292786 286.38243469 -278.9174176 286.19173401 -277.84022522 285.99525452 C-267.88467622 284.09225865 -258.10584808 281.75124403 -248.34022522 279.05775452 C-247.13954407 278.72952698 -245.93886292 278.40129944 -244.70179749 278.06312561 C-237.85777552 276.14113809 -231.32003987 273.88997 -224.77772522 271.12025452 C-222.89024638 270.35329433 -221.00219967 269.58773054 -219.11366272 268.82337952 C-208.08757945 264.30307972 -197.22216687 259.66130563 -186.67420959 254.10902405 C-184.71483435 253.08746512 -182.74057066 252.10035698 -180.76210022 251.11634827 C-157.92250519 239.60230578 -136.92141659 224.01914406 -117.77772522 207.12025452 C-117.03433899 206.46444397 -116.29095276 205.80863342 -115.52503967 205.13294983 C-102.37693414 193.42349987 -89.51712726 181.10406482 -78.77772522 167.12025452 C-77.88179994 166.03246631 -76.98175912 164.94805985 -76.07850647 163.86634827 C-63.31159226 148.47444124 -52.5130607 131.56607192 -42.77772522 114.12025452 C-42.371026 113.39725159 -41.96432678 112.67424866 -41.54530334 111.92933655 C-23.03271732 78.76697009 -10.48659167 41.21049878 -4.28553772 3.76869202 C-3.59275026 0.15553894 -3.59275026 0.15553894 0 0 Z "
        fill="#007881" transform="translate(985.7777252197266,692.8797454833984)"/>
    <path
        d="M0 0 C23.1 0 46.2 0 70 0 C72.23210898 7.81238145 72.23210898 7.81238145 72.97265625 11.625 C82.96777701 61.22210694 102.29209717 107.89012038 132 149 C132.75796875 150.05316406 133.5159375 151.10632813 134.296875 152.19140625 C141.90981321 162.54446228 150.29969015 172.23205331 158.94921875 181.7265625 C160.86255869 183.84763649 162.71433052 186.00974725 164.5625 188.1875 C167.48221336 191.54550751 170.65125808 194.42006659 174.04296875 197.29296875 C175.89980925 198.91260807 177.60397492 200.60123291 179.3125 202.375 C183.35854875 206.46620555 187.76371064 210.05039364 192.26855469 213.62353516 C193.49415886 214.59786628 194.71578223 215.57721459 195.93457031 216.56005859 C211.66984363 229.23796015 228.26103881 240.3543557 246.05224609 249.94384766 C248.02051239 251.01112266 249.9732674 252.10343494 251.92578125 253.19921875 C285.46959073 271.78902878 322.58072912 281.87251983 360 289 C360 312.43 360 335.86 360 360 C356.37 361.98 352.74 363.96 349 366 C322.66604424 382.78243157 304.31654312 408.7441502 297 439 C296.70222656 440.0003125 296.40445312 441.000625 296.09765625 442.03125 C291.61222695 458.73275634 292.83186309 478.11269878 296 495 C255.33903953 491.03790885 213.69030301 472.89761807 177 456 C175.96391602 455.52449707 174.92783203 455.04899414 173.86035156 454.55908203 C147.78608967 442.51954703 122.64810094 428.32135934 99 412 C98.37834961 411.57138672 97.75669922 411.14277344 97.11621094 410.70117188 C82.26860976 400.43140252 67.8216355 389.62048551 54 378 C53.47905762 377.56397461 52.95811523 377.12794922 52.42138672 376.67871094 C37.92721583 364.52067427 24.3880764 351.47860047 11 338.125 C10.40941803 337.53709686 9.81883606 336.94919373 9.21035767 336.34347534 C2.91829787 330.07306668 -3.2657492 323.79228765 -9 317 C-9.94872072 315.91639007 -10.8991948 314.8343123 -11.8515625 313.75390625 C-19.06579554 305.48223749 -25.80373268 296.90997457 -32.39306641 288.13476562 C-33.96516569 286.04627639 -35.54924023 283.96743916 -37.13671875 281.890625 C-43.79238957 273.15294011 -50.04845419 264.23046862 -56 255 C-56.46374023 254.28505371 -56.92748047 253.57010742 -57.40527344 252.83349609 C-92.72026996 198.25684649 -118.11239979 138.91498499 -133.27734375 75.73046875 C-133.45109024 75.0161116 -133.62483673 74.30175446 -133.80384827 73.56575012 C-134.58421282 70.24602527 -135 67.43579584 -135 64 C-135.99 63.67 -136.98 63.34 -138 63 C-137.30648437 63.14308594 -136.61296875 63.28617188 -135.8984375 63.43359375 C-102.49240375 69.96172703 -69.98544076 65.22596497 -41 47 C-22.83753911 34.7129496 -10.43600309 19.13267234 0 0 Z "
        fill="#00848E" transform="translate(227,693)"/>
    <path
        d="M0 0 C0.495 1.485 0.495 1.485 1 3 C2.0621875 3.10441406 3.124375 3.20882812 4.21875 3.31640625 C72.92870142 11.99539968 145.02520202 49.21806143 201 88 C201.60811523 88.42055664 202.21623047 88.84111328 202.84277344 89.27441406 C216.67581077 98.88978343 230.10913044 109.1561784 243 120 C243.53157715 120.44666016 244.0631543 120.89332031 244.61083984 121.35351562 C246.36961868 122.83512014 248.12318476 124.32267012 249.875 125.8125 C250.39151123 126.24957275 250.90802246 126.68664551 251.44018555 127.13696289 C262.42617414 136.54474353 272.78124857 146.61636498 282.98632812 156.85595703 C284.89078505 158.76582994 286.80060819 160.67022149 288.7109375 162.57421875 C294.6866485 168.54638924 300.56019788 174.52834895 306 181 C306.94851645 182.08378874 307.89899732 183.1658618 308.8515625 184.24609375 C316.06935627 192.52184517 322.80959983 201.09865099 329.40185547 209.87841797 C330.94616689 211.92853503 332.50407504 213.96750218 334.06640625 216.00390625 C350.63150695 237.68458115 365.10665778 260.96977235 378 285 C378.48404297 285.89041992 378.96808594 286.78083984 379.46679688 287.69824219 C402.45250354 330.08991431 419.03166706 375.41458452 430.27734375 422.26953125 C430.45109024 422.9838884 430.62483673 423.69824554 430.80384827 424.43424988 C431.58421282 427.75397473 432 430.56420416 432 434 C430.4372038 433.85737588 428.87477304 433.71074489 427.3125 433.5625 C426.44238281 433.48128906 425.57226562 433.40007812 424.67578125 433.31640625 C422 433 422 433 419.67480469 432.49511719 C391.14963833 427.21499329 360.79536313 436.46693508 336.96875 451.97265625 C319.74914863 464.13762744 306.41175715 479.1764857 297 498 C273.9 498 250.8 498 227 498 C225.53145403 494.32863508 224.61144642 491.59488454 223.921875 487.81640625 C223.64017456 486.31907959 223.64017456 486.31907959 223.3527832 484.79150391 C223.05440552 483.19314697 223.05440552 483.19314697 222.75 481.5625 C211.46973481 423.78716174 184.8367427 369.26622153 146 325 C145.401875 324.30261719 144.80375 323.60523438 144.1875 322.88671875 C142.47993352 320.90413556 140.74566149 318.9491435 139 317 C138.15308594 316.04867188 137.30617188 315.09734375 136.43359375 314.1171875 C125.59306522 302.07544119 113.82580059 290.91469349 101 281 C99.95465088 280.18644043 99.95465088 280.18644043 98.88818359 279.35644531 C52.38943431 243.32306101 -3.40966897 217.20138261 -62 209 C-62.3721171 199.9165667 -62.6556577 190.83578374 -62.82899475 181.74637032 C-62.912234 177.52444999 -63.02488051 173.30776961 -63.20703125 169.08886719 C-64.35508628 141.80333494 -64.35508628 141.80333494 -60.47259521 135.5333252 C-56.82519052 131.95216021 -52.78793778 130.20144105 -47.95848083 128.71800232 C-30.05555397 122.15457684 -15.77012926 98.30636221 -7.84326172 81.84814453 C-5.49434351 76.70011013 -3.69445946 71.39201208 -2 66 C-1.42765625 64.19982422 -1.42765625 64.19982422 -0.84375 62.36328125 C2.42437885 51.56678414 3.19557646 41.42723614 3.1875 30.1875 C3.18741943 29.13522217 3.18733887 28.08294434 3.18725586 26.9987793 C3.13208885 19.47574198 2.58504454 12.36987861 1 5 C0.66666667 3.33333333 0.33333333 1.66666667 0 0 Z "
        fill="#008B95" transform="translate(756,89)"/>
    <path
        d="M0 0 C1.49003149 3.87408187 0.31985344 6.18709006 -1 10 C-6.0652268 41.52483811 1.17392428 74.82520074 19.69921875 100.90625 C28.06219829 112.13675073 37.83318043 121.66472189 49.34765625 129.61328125 C49.87765228 129.98633896 50.40764832 130.35939667 50.95370483 130.74375916 C53.00981447 132.0894883 53.00981447 132.0894883 55.50984192 132.97895813 C58.60530998 134.33354868 60.64538943 135.55754284 63 138 C64.43489344 143.35576561 64.16640984 148.62926735 63.9765625 154.1171875 C63.95789567 155.70040409 63.94366838 157.28367872 63.9336853 158.86697388 C63.89561998 163.02125392 63.79751175 167.17200036 63.68664551 171.32489014 C63.58408197 175.56766957 63.53862098 179.811024 63.48828125 184.0546875 C63.38124267 192.37140799 63.21073314 200.68526371 63 209 C62.28700745 209.13149948 61.57401489 209.26299896 60.8394165 209.39848328 C41.63664594 212.92333032 41.63664594 212.92333032 22.75 217.8125 C21.0165332 218.32115601 21.0165332 218.32115601 19.24804688 218.84008789 C-31.79616594 234.07952746 -78.47913076 260.29241006 -117.48388672 296.6015625 C-118.97731968 297.97908005 -120.48692291 299.33599677 -122.00390625 300.6875 C-129.48598878 307.3772473 -136.34832515 314.48677917 -143 322 C-143.45197754 322.50724609 -143.90395508 323.01449219 -144.36962891 323.53710938 C-185.30392497 369.74698284 -211.99653065 427.99731818 -223.42504883 488.38305664 C-224.1371648 491.62431824 -225.08831957 494.80911851 -226 498 C-249.1 498 -272.2 498 -296 498 C-297.98 494.37 -299.96 490.74 -302 487 C-320.5648967 458.23697822 -348.37604267 440.69606609 -381.30078125 433.25390625 C-396.04657348 430.64323485 -413.25633514 429.97610401 -427.64453125 434.44140625 C-430.1858677 435.04407808 -431.56349263 434.85760516 -434 434 C-433.01 434 -432.02 434 -431 434 C-430.89558594 432.9378125 -430.79117188 431.875625 -430.68359375 430.78125 C-425.84600167 392.48294733 -409.56588004 352.21148994 -393.20117188 317.54638672 C-392.34713821 315.73590478 -391.50022193 313.92205799 -390.65820312 312.10595703 C-370.6190119 268.88700174 -344.6698948 228.45961984 -314 192 C-313.55333984 191.46842285 -313.10667969 190.9368457 -312.64648438 190.38916016 C-311.16487986 188.63038132 -309.67732988 186.87681524 -308.1875 185.125 C-307.75042725 184.60848877 -307.31335449 184.09197754 -306.86303711 183.55981445 C-297.45525647 172.57382586 -287.38363502 162.21875143 -277.14404297 152.01367188 C-275.23417006 150.10921495 -273.32977851 148.19939181 -271.42578125 146.2890625 C-265.45361076 140.3133515 -259.47165105 134.43980212 -253 129 C-251.91621126 128.05148355 -250.8341382 127.10100268 -249.75390625 126.1484375 C-241.47815483 118.93064373 -232.90134901 112.19040017 -224.12158203 105.59814453 C-222.07146497 104.05383311 -220.03249782 102.49592496 -217.99609375 100.93359375 C-208.28140229 93.51109224 -198.27841339 86.61781117 -188 80 C-187.21592773 79.49388184 -186.43185547 78.98776367 -185.62402344 78.46630859 C-153.55222204 57.88765982 -119.57627013 40.65201544 -84 27 C-82.89640137 26.5762207 -81.79280273 26.15244141 -80.65576172 25.71582031 C-66.55512244 20.36354265 -52.30671847 15.76639988 -37.8125 11.625 C-37.09513672 11.41962616 -36.37777344 11.21425232 -35.63867188 11.00265503 C-27.69850986 8.74197786 -19.72774237 6.63548134 -11.69921875 4.7109375 C-10.98683548 4.53793121 -10.27445221 4.36492493 -9.54048157 4.18667603 C-6.22938435 3.41010162 -3.42671571 3 0 3 C0 2.01 0 1.02 0 0 Z "
        fill="#0095A0" transform="translate(523,89)"/>
    <path
        d="M0 0 C1.805887 0.12749474 3.60651808 0.3294804 5.40234375 0.55859375 C20.93634662 2.39111982 36.29359827 3.33292055 51.9375 3.375 C53.15709915 3.38610306 53.15709915 3.38610306 54.40133667 3.39743042 C71.46667162 3.52673119 87.88015103 1.60498584 105 0 C105 23.1 105 46.2 105 70 C107.97 70.99 107.97 70.99 111 72 C138.03869586 86.63413674 158.2633215 112.7704186 167.5 141.875 C176.46930726 172.07591288 173.58579979 206.13176147 158.92700195 234.08520508 C145.59341243 258.48874079 125.29882006 276.75460478 100 288 C98.93394531 288.48210937 97.86789062 288.96421875 96.76953125 289.4609375 C68.51933351 301.27660956 35.02278791 300.25345354 6.75 289.3125 C-7.63499834 283.3977296 -19.55401466 275.4666497 -31 265 C-31.79921875 264.28328125 -32.5984375 263.5665625 -33.421875 262.828125 C-44.76508371 252.1285026 -52.6770407 239.12401299 -59 225 C-59.48210938 223.96875 -59.96421875 222.9375 -60.4609375 221.875 C-72.29169306 194.34160524 -70.59515036 161.93916078 -60.75 134.1875 C-49.12122043 106.52400574 -30.14771339 83.75071476 -3 70 C-2.34 70 -1.68 70 -1 70 C-1.00222061 69.13778336 -1.00444122 68.27556671 -1.00672913 67.38722229 C-1.02672995 59.27893964 -1.04197306 51.17066523 -1.05181217 43.06236362 C-1.05704051 38.89337172 -1.06413726 34.72440013 -1.07543945 30.55541992 C-1.08627008 26.53542314 -1.09227721 22.51544595 -1.09487724 18.49543571 C-1.09673118 16.95837025 -1.10035119 15.42130591 -1.10573006 13.88424873 C-1.11294284 11.73864513 -1.11399084 9.59312345 -1.11352539 7.44750977 C-1.115746 6.22395279 -1.11796661 5.00039581 -1.12025452 3.73976135 C-1 1 -1 1 0 0 Z "
        fill="#7EE4EA" transform="translate(588,983)"/>
    <path
        d="M0 0 C0.68368652 0.20898926 1.36737305 0.41797852 2.07177734 0.63330078 C31.22977022 9.83782206 57.150274 30.93869987 71.35839844 58.0949707 C76.30515781 67.97304567 81.02614336 77.89803427 82 89 C82.33 89.99 82.66 90.98 83 92 C85.46251058 99.38753173 85.15384082 107.17450194 85.125 114.875 C85.12886719 115.89980469 85.13273438 116.92460938 85.13671875 117.98046875 C85.12327461 128.56100428 84.08977047 137.93887872 80.9375 148.0625 C80.62659424 149.064021 80.31568848 150.06554199 79.99536133 151.09741211 C73.75160538 170.59106232 64.12123748 186.21014332 50 201 C49.46375 201.59941406 48.9275 202.19882813 48.375 202.81640625 C40.81581691 210.96142603 30.15053083 218.49392323 20 223 C19.34 223 18.68 223 18 223 C18 246.1 18 269.2 18 293 C1.665 291.515 1.665 291.515 -15 290 C-23.89115171 289.66945604 -23.89115171 289.66945604 -32.76660156 289.60888672 C-35.00907985 289.62506551 -37.24975862 289.60874879 -39.4921875 289.58984375 C-55.86408429 289.63070539 -71.51420242 291.50129113 -88 293 C-88 269.9 -88 246.8 -88 223 C-89.98 222.34 -91.96 221.68 -94 221 C-96.45293935 219.5788526 -98.78279525 218.14482334 -101.125 216.5625 C-101.77879639 216.12220459 -102.43259277 215.68190918 -103.10620117 215.22827148 C-127.06628832 198.70015395 -143.38342836 174.83388569 -151.4375 147.0625 C-151.80814575 145.78524048 -151.80814575 145.78524048 -152.1862793 144.48217773 C-154.83283423 134.78380406 -155.19469585 125.19851996 -155.1875 115.1875 C-155.18741943 114.13812256 -155.18733887 113.08874512 -155.18725586 112.00756836 C-155.04051882 92.04051882 -155.04051882 92.04051882 -152 89 C-151.77295318 87.50271829 -151.56951725 86.00185413 -151.375 84.5 C-147.88133217 64.81305426 -136.24602407 47.48541814 -123 33 C-122.28328125 32.20078125 -121.5665625 31.4015625 -120.828125 30.578125 C-110.14368876 19.25101591 -97.12754702 11.27973358 -83 5 C-81.93394531 4.51789062 -80.86789062 4.03578125 -79.76953125 3.5390625 C-55.54947712 -6.59099816 -25.06899036 -7.84345059 0 0 Z "
        fill="#9BF1F7" transform="translate(675,4)"/>
    <path
        d="M0 0 C0.65726074 0.16628906 1.31452148 0.33257813 1.99169922 0.50390625 C23.78202746 6.23680625 42.00628321 17.22627932 58 33 C58.86496094 33.85207031 59.72992188 34.70414063 60.62109375 35.58203125 C68.04422596 43.30625775 76.35120264 53.40481055 79 64 C102.1 64 125.2 64 149 64 C147.515 78.85 147.515 78.85 146 94 C145.2859925 103.99610499 144.90538386 113.54115869 145.18701172 123.4909668 C145.24889828 125.77189436 145.29110288 128.0525975 145.33203125 130.33398438 C145.68530872 143.82120666 147.37092087 156.42434058 149 170 C125.9 170 102.8 170 79 170 C78.01 172.97 78.01 172.97 77 176 C62.16058824 203.41797131 35.74437171 223.4199712 6.29296875 232.78125 C-12.90847055 238.44080546 -34.39602096 239.08167953 -54 235 C-54.33 234.67 -54.66 234.34 -55 234 C-56.49728171 233.77295318 -57.99814587 233.56951725 -59.5 233.375 C-79.18694574 229.88133217 -96.51458186 218.24602407 -111 205 C-111.79921875 204.28328125 -112.5984375 203.5665625 -113.421875 202.828125 C-124.74898409 192.14368876 -132.72026642 179.12754702 -139 165 C-139.48210937 163.93394531 -139.96421875 162.86789062 -140.4609375 161.76953125 C-152.27660956 133.51933351 -151.25345354 100.02278791 -140.3125 71.75 C-134.3977296 57.36500166 -126.4666497 45.44598534 -116 34 C-115.28328125 33.20078125 -114.5665625 32.4015625 -113.828125 31.578125 C-103.14747165 20.25502634 -90.1283288 12.26903177 -76 6 C-74.34871094 5.25943359 -74.34871094 5.25943359 -72.6640625 4.50390625 C-64.29425134 1.02165148 -55.88932015 -0.54466882 -47 -2 C-45.81905762 -2.25910156 -45.81905762 -2.25910156 -44.61425781 -2.5234375 C-30.31319334 -5.1304302 -14.03317084 -3.57246344 0 0 Z "
        fill="#9AEFF5" transform="translate(148,523)"/>
    <path
        d="M0 0 C0.66 0.33 1.32 0.66 2 1 C-4.93 7.93 -11.86 14.86 -19 22 C-19.66 21.67 -20.32 21.34 -21 21 C-14.35150847 13.52992682 -7.59684563 6.52570688 0 0 Z "
        fill="#64D1DA" transform="translate(46,544)"/>
    <path
        d="M0 0 C0.66 0.33 1.32 0.66 2 1 C-4.93 7.93 -11.86 14.86 -19 22 C-19.66 21.67 -20.32 21.34 -21 21 C-14.35150847 13.52992682 -7.59684563 6.52570688 0 0 Z "
        fill="#64D2DB" transform="translate(566,24)"/>
</svg>
